<?xml version="1.0" encoding="iso-8859-1"?>
<!-- Generator: Adobe Illustrator 19.0.0, SVG Export Plug-In . SVG Version: 6.00 Build 0)  -->
<svg version="1.1" id="Layer_1" xmlns="http://www.w3.org/2000/svg" xmlns:xlink="http://www.w3.org/1999/xlink" x="0px" y="0px"
	 viewBox="0 0 480 480" style="enable-background:new 0 0 480 480;" xml:space="preserve">
<path style="fill:#9B180E;" d="M480,304.8c0,24-17.6,28.8-42.4,28.8L380,316c-24,0-44-20-44-44v-64c0-24,20.8-44,45.6-44l56-17.6
	c24,0,42.4,4.8,42.4,28.8V304.8z"/>
<path style="fill:#F20A41;" d="M400,338.4c0,25.6-21.6,45.6-47.2,45.6H42.4C16.8,384,0,379.2,0,353.6V126.4C0,100.8,16.8,96,42.4,96
	h310.4c25.6,0,47.2,20,47.2,45.6V338.4z"/>
<path style="fill:#E20544;" d="M400,338.4V141.6c0-25.6-6.4-45.6-32-45.6H42.4C24,96,8,106.4,0.8,121.6L263.2,384H368
	C393.6,384,400,364,400,338.4z"/>
<path style="fill:#E51E0E;" d="M440.8,146.4l-8.8,3.2v181.6l8.8,2.4c2.4,0,7.2,0,7.2-0.8V147.2C448,147.2,443.2,146.4,440.8,146.4z"
	/>
<g>
</g>
<g>
</g>
<g>
</g>
<g>
</g>
<g>
</g>
<g>
</g>
<g>
</g>
<g>
</g>
<g>
</g>
<g>
</g>
<g>
</g>
<g>
</g>
<g>
</g>
<g>
</g>
<g>
</g>
</svg>
