<svg id="icons" enable-background="new 0 0 64 64" height="512" viewBox="0 0 64 64" width="512" xmlns="http://www.w3.org/2000/svg"><path d="m44 5h-24c-2.76 0-5 2.24-5 5v1 44.002 2c0 3.3 2.7 6 6 6h11 11c3.3 0 6-2.7 6-6v-2-44.002-1c0-2.76-2.24-5-5-5z" fill="#5c9eff"/><path d="m44 .998h-24c-2.76 0-5 2.24-5 5v1 44 2c0 3.3 2.7 6 6 6h11 11c3.3 0 6-2.7 6-6v-2-44-1c0-2.76-2.24-5-5-5z" fill="#94c1ff"/><path d="m15 6.998h34v44h-34z" fill="#fff"/><path d="m32 52.998c1.1 0 2 .9 2 2 0 1.11-.9 2-2 2s-2-.89-2-2c0-1.1.9-2 2-2z" fill="#d7e9ff"/><path d="m19 37.01h26v13.99h-26z" fill="#94c1ff"/><path d="m19 11h26v16h-26z" fill="#94c1ff"/><path d="m24.5 41c.83 0 1.5.68 1.5 1.5 0 .84-.67 1.5-1.5 1.5s-1.5-.67-1.5-1.5c0-.82.67-1.5 1.5-1.5z" fill="#fff"/><path d="m37 43 6.39 8h-11.39-1.39l1.77-2.22z" fill="#fff"/><path d="m30 46 2.38 2.78-1.77 2.22h-4.9z" fill="#d7e9ff"/><path d="m34 19-4 3v-6z" fill="#fff"/><g fill="#116fff"><path d="m44.999 27.995h-25.998c-.553 0-1-.447-1-1v-15.995c0-.553.447-1 1-1h25.998c.553 0 1 .447 1 1v15.995c0 .553-.447 1-1 1zm-24.998-2h23.998v-13.995h-23.998z"/><path d="m44.999 52c-.553 0-1-.447-1-1v-12.993h-23.998v12.993c0 .553-.447 1-1 1s-1-.447-1-1v-13.993c0-.553.447-1 1-1h25.998c.553 0 1 .447 1 1v13.993c0 .553-.447 1-1 1z"/><path d="m45.013 30.996h-26.013c-.553 0-1-.447-1-1s.447-1 1-1h26.013c.553 0 1 .447 1 1s-.448 1-1 1z"/><path d="m30 22.998c-.152 0-.306-.035-.447-.105-.339-.17-.553-.516-.553-.895v-6.002c0-.379.214-.725.553-.895.34-.169.745-.133 1.047.095l4.001 3.001c.252.188.4.485.4.8s-.148.611-.4.8l-4.001 3.001c-.176.133-.388.2-.6.2zm1-5.002v2.002l1.334-1.001z"/><path d="m43.388 51.995c-.294 0-.585-.129-.782-.376l-6.387-7.994c-.345-.432-.274-1.061.157-1.405.432-.346 1.061-.273 1.405.157l6.387 7.994c.345.432.274 1.061-.157 1.405-.185.148-.405.219-.623.219z"/><path d="m30.606 52c-.219 0-.438-.071-.623-.219-.432-.345-.502-.974-.157-1.405l6.391-7.999c.345-.43.973-.502 1.405-.157s.502.974.157 1.405l-6.391 7.999c-.197.247-.488.376-.782.376z"/><path d="m32.385 49.782c-.281 0-.562-.118-.759-.35l-2.384-2.781c-.36-.419-.312-1.05.108-1.409.419-.359 1.051-.313 1.409.108l2.384 2.781c.36.419.312 1.05-.108 1.409-.188.163-.42.242-.65.242z"/><path d="m25.715 52c-.23 0-.462-.079-.65-.241-.42-.359-.469-.99-.108-1.409l4.285-4.999c.358-.421.991-.468 1.409-.108.42.359.469.99.108 1.409l-4.285 4.999c-.198.231-.478.349-.759.349z"/><path d="m24.5 45.004c-1.379 0-2.5-1.121-2.5-2.5s1.121-2.5 2.5-2.5 2.5 1.121 2.5 2.5-1.121 2.5-2.5 2.5zm0-3c-.275 0-.5.225-.5.5s.225.5.5.5.5-.225.5-.5-.225-.5-.5-.5z"/><path d="m32 34h-13c-.553 0-1-.447-1-1s.447-1 1-1h13c.553 0 1 .447 1 1s-.447 1-1 1z"/><path d="m43 60h-22c-3.859 0-7-3.141-7-7 0-.553.447-1 1-1s1 .447 1 1c0 2.757 2.243 5 5 5h22c2.757 0 5-2.243 5-5 0-.553.447-1 1-1s1 .447 1 1c0 3.859-3.141 7-7 7z"/><path d="m29.03 5c-.553 0-1.005-.447-1.005-1s.442-1 .994-1h.011c.552 0 1 .447 1 1s-.448 1-1 1z"/><path d="m35 5h-3c-.553 0-1-.447-1-1s.447-1 1-1h3c.553 0 1 .447 1 1s-.447 1-1 1z"/><path d="m49 7.002c-.553 0-1-.447-1-1 0-2.206-1.794-4-4-4-.553 0-1-.447-1-1s.447-1 1-1c3.309 0 6 2.691 6 6 0 .553-.447 1-1 1z"/><path d="m15 7c-.553 0-1-.447-1-1 0-3.309 2.691-6 6-6 .553 0 1 .447 1 1s-.447 1-1 1c-2.206 0-4 1.794-4 4 0 .553-.447 1-1 1z"/><path d="m44 2h-24c-.553 0-1-.447-1-1s.447-1 1-1h24c.553 0 1 .447 1 1s-.447 1-1 1z"/><path d="m49 8.002h-34c-.553 0-1-.447-1-1s.447-1 1-1h34c.553 0 1 .447 1 1s-.447 1-1 1z"/><path d="m43 64h-22c-3.859 0-7-3.141-7-7v-51c0-.553.447-1 1-1s1 .447 1 1v51c0 2.757 2.243 5 5 5h22c2.757 0 5-2.243 5-5v-50.998c0-.553.447-1 1-1s1 .447 1 1v50.998c0 3.859-3.141 7-7 7z"/><path d="m49 52h-34c-.553 0-1-.447-1-1s.447-1 1-1h34c.553 0 1 .447 1 1s-.447 1-1 1z"/><path d="m32 58c-1.654 0-3-1.346-3-3s1.346-3 3-3 3 1.346 3 3-1.346 3-3 3zm0-4c-.552 0-1 .448-1 1s.448 1 1 1 1-.448 1-1-.448-1-1-1z"/></g></svg>